# xmcd CD database file
#
# Track frame offsets:
#	150
#	18355
#	33490
#	49155
#	64680
#	77270
#	92005
#	106085
#	121775
#	135265
#	151570
#	166285
#
# Disc length: 2445 seconds
#
# Revision: 0
# Processed by: cddbd v1.5.2PL0 Copyright (c) Steve Scherf et al.
# Submitted via: CDex 1.70beta2
#
DISCID=7b098b0c
DTITLE=Ivar Medaas - Langs Fjorden
DYEAR=1995
DGENRE=Viser
TTITLE0=Pizza og pote
TTITLE1=Tunellferie
TTITLE2=Kjære Bruvik
TTITLE3=Matrosen
TTITLE4=Oldefar
TTITLE5=Etter ein fest
TTITLE6=Tunnel på tunnel
TTITLE7=Brua
TTITLE8=Bille og bale
TTITLE9=I hine hårde dagar
TTITLE10=Snøggbåten drar forbi
TTITLE11=Utkant
EXTD=YEAR: 1995
EXTT0=
EXTT1=
EXTT2=
EXTT3=
EXTT4=
EXTT5=
EXTT6=
EXTT7=
EXTT8=
EXTT9=
EXTT10=
EXTT11=
PLAYORDER=
